<?xml version="1.0" encoding="UTF-8" standalone="no"?>
<svg
   id="Capa_1"
   data-name="Capa 1"
   viewBox="0 0 737.51726 700.13163"
   version="1.1"
   sodipodi:docname="logo_fm_universidad.svg"
   width="737.51727"
   height="700.13165"
   inkscape:version="1.1.2 (0a00cf5339, 2022-02-04)"
   xmlns:inkscape="http://www.inkscape.org/namespaces/inkscape"
   xmlns:sodipodi="http://sodipodi.sourceforge.net/DTD/sodipodi-0.dtd"
   xmlns="http://www.w3.org/2000/svg"
   xmlns:svg="http://www.w3.org/2000/svg">
  <sodipodi:namedview
     id="namedview49"
     pagecolor="#ffffff"
     bordercolor="#666666"
     borderopacity="1.0"
     inkscape:pageshadow="2"
     inkscape:pageopacity="0.0"
     inkscape:pagecheckerboard="0"
     showgrid="false"
     inkscape:zoom="0.40885133"
     inkscape:cx="443.92665"
     inkscape:cy="231.13536"
     inkscape:window-width="1850"
     inkscape:window-height="1016"
     inkscape:window-x="70"
     inkscape:window-y="27"
     inkscape:window-maximized="1"
     inkscape:current-layer="Capa_1" />
  <defs
     id="defs4">
    <style
       id="style2">.cls-1,.cls-2{fill:#fff;}.cls-2{fill-rule:evenodd;}</style>
  </defs>
  <rect
     style="fill:none;fill-opacity:0.138114;stroke:none;stroke-width:0.999999;stroke-dasharray:0.999999, 3"
     id="rect904"
     width="737.51727"
     height="700.13165"
     x="0"
     y="0"
     inkscape:export-filename="/home/julio/Escritorio/app-radio/imagenes/logo_fm_unam.png"
     inkscape:export-xdpi="96"
     inkscape:export-ydpi="96" />
  <path
     class="cls-1"
     d="M 509.59573,174.04015 A 25.352824,25.352824 0 0 1 485.29055,153.97789 C 473.76653,101.59602 431.07532,62.990585 375.28863,62.990585 a 112.30672,112.30672 0 0 0 -78.57281,32.21485 111.83529,111.83529 0 1 0 -78.5728,191.455725 45.15317,45.15317 0 1 1 0,90.30634 44.210295,44.210295 0 0 1 -31.74341,-13.20023 33.335619,33.335619 0 1 0 -47.14368,47.14369 111.83529,111.83529 0 0 0 157.45989,0.5238 111.7829,111.7829 0 0 0 180.08887,-32.94818 l 99.52554,-204.28929 z m -45.57222,157.77418 a 88.525355,88.525355 0 0 1 -167.04578,40.96262 88.472973,88.472973 0 0 1 -141.01198,21.73848 9.9637161,9.9637161 0 0 1 14.03834,-14.14311 68.515482,68.515482 0 1 0 48.45323,-116.91632 88.525355,88.525355 0 1 1 78.5728,-129.38322 88.472973,88.472973 0 1 1 119.27351,119.27352 88.577738,88.577738 0 0 1 47.71988,78.46803 z"
     id="path6"
     inkscape:export-filename="/home/julio/Escritorio/app-radio/imagenes/logo_fm_unam.png"
     inkscape:export-xdpi="96"
     inkscape:export-ydpi="96"
     style="stroke-width:5.23819" />
  <path
     class="cls-1"
     d="m 375.44577,263.35123 a 68.515482,68.515482 0 1 0 68.51548,68.4631 68.410719,68.410719 0 0 0 -68.51548,-68.4631 z m 0,113.61627 a 45.15317,45.15317 0 1 1 45.15317,-45.15317 44.838878,44.838878 0 0 1 -45.15317,45.15317 z"
     id="path8"
     inkscape:export-filename="/home/julio/Escritorio/app-radio/imagenes/logo_fm_unam.png"
     inkscape:export-xdpi="96"
     inkscape:export-ydpi="96"
     style="stroke-width:5.23819" />
  <path
     class="cls-1"
     d="m 329.24496,253.3463 a 77.106108,77.106108 0 0 1 -32.26723,-32.47676 77.4204,77.4204 0 0 1 -32.00532,32.47676 76.687053,76.687053 0 0 1 32.26723,32.26723 76.425144,76.425144 0 0 1 32.00532,-32.26723 z"
     id="path10"
     inkscape:export-filename="/home/julio/Escritorio/app-radio/imagenes/logo_fm_unam.png"
     inkscape:export-xdpi="96"
     inkscape:export-ydpi="96"
     style="stroke-width:5.23819" />
  <path
     class="cls-1"
     d="m 630.07403,199.23583 c -10.47637,20.53369 -80.14426,164.53144 -80.14426,164.53144 a 111.99243,111.99243 0 0 0 80.14426,-164.53144 z"
     id="path12"
     inkscape:export-filename="/home/julio/Escritorio/app-radio/imagenes/logo_fm_unam.png"
     inkscape:export-xdpi="96"
     inkscape:export-ydpi="96"
     style="stroke-width:5.23819" />
  <path
     class="cls-1"
     d="M 634.10744,145.12536 A 10.162082,10.162082 0 0 0 623.94535,134.96327 H 511.16719 a 10.162085,10.162085 0 0 0 0,20.32417 h 96.80169 l -103.1399,211.83227 a 10.120959,10.120959 0 1 0 18.22889,8.80016 L 632.74551,150.15402 a 9.6382635,9.6382635 0 0 0 1.36193,-5.02866 z"
     id="path14"
     inkscape:export-filename="/home/julio/Escritorio/app-radio/imagenes/logo_fm_unam.png"
     inkscape:export-xdpi="96"
     inkscape:export-ydpi="96"
     style="stroke-width:5.23819" />
  <path
     class="cls-1"
     d="m 218.45732,106.3104 a 68.515482,68.515482 0 1 0 68.51548,68.51548 68.515482,68.515482 0 0 0 -68.51548,-68.51548 z m -0.62859,113.66865 a 45.15317,45.15317 0 1 1 45.57223,-44.83888 44.89126,44.89126 0 0 1 -45.57223,44.83888 z"
     id="path16"
     inkscape:export-filename="/home/julio/Escritorio/app-radio/imagenes/logo_fm_unam.png"
     inkscape:export-xdpi="96"
     inkscape:export-ydpi="96"
     style="stroke-width:5.23819" />
  <path
     class="cls-1"
     d="m 375.44577,106.3104 a 68.515482,68.515482 0 1 0 68.51548,68.51548 68.410719,68.410719 0 0 0 -68.51548,-68.51548 z m -0.47144,113.66865 a 45.15317,45.15317 0 1 1 45.46746,-45.15317 44.89126,44.89126 0 0 1 -45.46746,45.15317 z"
     id="path18"
     inkscape:export-filename="/home/julio/Escritorio/app-radio/imagenes/logo_fm_unam.png"
     inkscape:export-xdpi="96"
     inkscape:export-ydpi="96"
     style="stroke-width:5.23819" />
  <path
     class="cls-2"
     d="m 686.80359,623.3718 a 4.6619862,4.6619862 0 0 1 -1.20478,3.92864 5.8667691,5.8667691 0 0 1 -4.55723,1.51908 c -3.24767,0 -4.76675,-1.36193 -4.76675,-3.50959 0,-2.14765 1.51908,-3.61435 4.60961,-3.61435 h 5.91915 z m -5.23819,-13.46214 c 3.66673,0 5.23819,1.51908 5.23819,4.9239 v 1.51907 h -7.2287 c -7.33346,0 -10.73828,4.08579 -10.73828,9.06206 a 9.7430273,9.7430273 0 0 0 2.5667,6.96679 10.476373,10.476373 0 0 0 7.90967,2.82863 9.6906454,9.6906454 0 0 0 7.75252,-3.09053 3.4572032,3.4572032 0 0 0 3.61434,2.98576 3.7714944,3.7714944 0 0 0 3.35245,-1.83336 6.1810603,6.1810603 0 0 0 0.5762,-3.4572 v -15.45266 c 0,-7.33346 -4.45246,-11.05258 -13.14785,-11.05258 a 15.97647,15.97647 0 0 0 -7.85728,1.83337 4.5572224,4.5572224 0 0 0 -2.93339,3.66673 3.5619669,3.5619669 0 0 0 0.8905,2.35719 2.8286208,2.8286208 0 0 0 2.20004,1.04763 5.2381867,5.2381867 0 0 0 2.56671,-0.78572 8.9572993,8.9572993 0 0 1 5.02866,-1.51908 z m -30.53863,16.02885 a 8.276335,8.276335 0 0 0 9.00968,8.90492 h 0.41906 a 7.0715521,7.0715521 0 0 0 3.19529,-0.52382 2.9333845,2.9333845 0 0 0 1.57147,-2.77624 2.8810027,2.8810027 0 0 0 -1.57147,-2.77624 5.2381867,5.2381867 0 0 0 -2.35718,-0.47142 2.4619477,2.4619477 0 0 1 -2.51433,-2.77624 v -14.92884 h 2.35719 a 5.2381867,5.2381867 0 0 0 2.61908,-0.41906 3.0381483,3.0381483 0 0 0 0,-5.23818 5.2381867,5.2381867 0 0 0 -2.61908,-0.41906 h -2.35719 v -4.13817 a 7.3334614,7.3334614 0 0 0 -0.47143,-3.50958 3.7191126,3.7191126 0 0 0 -3.40482,-1.83336 3.5619669,3.5619669 0 0 0 -3.35244,1.83336 7.1763158,7.1763158 0 0 0 -0.52383,3.50958 v 4.13817 h -0.78572 a 5.2381867,5.2381867 0 0 0 -2.6191,0.41906 3.0381483,3.0381483 0 0 0 0,5.23818 5.2381867,5.2381867 0 0 0 2.6191,0.41906 h 0.78572 z m -18.12412,-22.68135 c -6.23344,0 -13.98596,3.30006 -13.98596,15.71457 0,12.4145 7.70014,15.71456 13.93358,15.71456 a 11.78592,11.78592 0 0 0 6.12868,-1.51907 c 1.83336,-0.94288 3.77149,-2.40957 3.77149,-4.40009 a 3.3000576,3.3000576 0 0 0 -1.10001,-2.51432 3.4572032,3.4572032 0 0 0 -2.3572,-1.10002 4.347695,4.347695 0 0 0 -2.72385,1.1524 5.6048598,5.6048598 0 0 1 -3.71911,1.30955 5.2381867,5.2381867 0 0 1 -4.40009,-2.04289 14.405014,14.405014 0 0 1 0,-13.67167 5.500096,5.500096 0 0 1 4.40009,-2.0429 5.919151,5.919151 0 0 1 3.71911,1.36193 4.2953131,4.2953131 0 0 0 2.72385,1.04763 3.3524395,3.3524395 0 0 0 2.3572,-0.99525 3.5095851,3.5095851 0 0 0 1.10001,-2.56671 c 0,-1.99051 -1.99051,-3.4572 -3.77149,-4.34769 a 11.157338,11.157338 0 0 0 -6.0763,-1.10003 z m -23.9909,18.38604 a 4.4524587,4.4524587 0 0 0 3.4572,-0.99525 4.8715136,4.8715136 0 0 0 1.04765,-3.4572 13.304994,13.304994 0 0 0 -13.56691,-13.93359 c -8.0668,0 -13.5669,5.8144 -13.5669,15.71457 0,12.57164 7.07155,15.71456 14.45739,15.71456 a 15.71456,15.71456 0 0 0 8.48587,-2.14765 c 1.78097,-1.20479 3.03814,-2.56672 3.03814,-4.03341 a 3.3524395,3.3524395 0 0 0 -3.1429,-3.24768 4.7667499,4.7667499 0 0 0 -2.88102,1.15241 9.0096812,9.0096812 0 0 1 -5.23818,1.67621 6.3905878,6.3905878 0 0 1 -6.86202,-6.91441 z m -3.14291,-5.23819 h -11.78592 a 7.2810795,7.2810795 0 0 1 0.68097,-3.35243 5.2381867,5.2381867 0 0 1 5.23818,-3.1953 5.2381867,5.2381867 0 0 1 5.23819,3.1953 8.0144257,8.0144257 0 0 1 0.62858,3.30005 z m -44.62935,-9.74302 a 3.7191126,3.7191126 0 0 0 -1.1524,-2.25242 3.3524395,3.3524395 0 0 0 -2.46195,-0.89049 3.7191126,3.7191126 0 0 0 -3.35244,1.78098 6.3905878,6.3905878 0 0 0 -0.5762,3.50958 v 20.95276 a 6.9144064,6.9144064 0 0 0 0.52382,3.4572 3.5095851,3.5095851 0 0 0 3.35244,1.88574 3.6667306,3.6667306 0 0 0 3.40482,-1.88574 7.0715521,7.0715521 0 0 0 0.47144,-3.4572 v -13.77644 a 5.2381867,5.2381867 0 1 1 10.47637,0 v 13.77644 a 6.3905878,6.3905878 0 0 0 0.52381,3.4572 3.5095851,3.5095851 0 0 0 3.35245,1.88574 3.6667306,3.6667306 0 0 0 3.40482,-1.88574 7.0715521,7.0715521 0 0 0 0.47144,-3.4572 v -14.82408 a 11.524011,11.524011 0 0 0 -3.14292,-8.85252 10.162082,10.162082 0 0 0 -7.64775,-2.82864 10.476373,10.476373 0 0 0 -7.64775,3.35244 z m -14.98121,12.67642 a 15.71456,15.71456 0 0 0 -3.56196,-12.1526 12.990703,12.990703 0 0 0 -9.63827,-3.82387 13.095467,13.095467 0 0 0 -9.69064,3.82387 22.681348,22.681348 0 0 0 0,24.2528 12.938321,12.938321 0 0 0 9.69064,3.82388 12.781176,12.781176 0 0 0 9.63827,-3.82388 15.71456,15.71456 0 0 0 3.56196,-12.15258 z m -18.64795,0 a 10.476373,10.476373 0 0 1 1.83336,-7.54299 5.2381867,5.2381867 0 0 1 7.22871,0 10.476373,10.476373 0 0 1 1.83335,7.54299 10.476373,10.476373 0 0 1 -1.83335,7.54299 5.6572417,5.6572417 0 0 1 -7.22871,0 10.476373,10.476373 0 0 1 -1.83336,-7.59537 z m -22.83849,-15.71457 c -6.23344,0 -13.93357,3.30006 -13.93357,15.71457 0,12.4145 7.64775,15.71455 13.88119,15.71455 a 12.152593,12.152593 0 0 0 6.18106,-1.51907 c 1.78098,-0.94287 3.77149,-2.40956 3.77149,-4.40008 a 3.5095851,3.5095851 0 0 0 -1.10003,-2.51433 3.5619669,3.5619669 0 0 0 -2.40955,-1.10001 4.347695,4.347695 0 0 0 -2.67148,1.15239 5.7096235,5.7096235 0 0 1 -3.77149,1.30955 5.2381867,5.2381867 0 0 1 -4.40009,-2.0429 14.405014,14.405014 0 0 1 0,-13.67167 5.6048598,5.6048598 0 0 1 4.40009,-2.04289 6.0762966,6.0762966 0 0 1 3.77149,1.36193 4.2429313,4.2429313 0 0 0 2.67148,1.04764 3.5095851,3.5095851 0 0 0 2.40955,-0.99525 3.7191126,3.7191126 0 0 0 1.10003,-2.56671 c 0,-1.99051 -2.04289,-3.45721 -3.77149,-4.34769 a 11.366865,11.366865 0 0 0 -6.12868,-1.46671 z m -45.88651,-0.36668 c -6.33822,0 -12.04784,3.40483 -12.04784,9.90018 0,6.49535 3.50958,8.22396 9.11444,8.74777 l 4.9239,0.47144 c 2.46195,0 3.30006,1.36193 3.30006,2.881 0,2.30481 -2.6191,3.35244 -5.23818,3.35244 a 12.257357,12.257357 0 0 1 -6.91441,-1.83337 5.2381867,5.2381867 0 0 0 -2.56671,-0.89049 2.9333845,2.9333845 0 0 0 -2.09528,0.78573 3.3524395,3.3524395 0 0 0 -1.25716,2.6191 3.8762582,3.8762582 0 0 0 1.88575,3.03814 17.862217,17.862217 0 0 0 10.79065,2.77624 c 7.33347,0 13.20023,-3.30005 13.20023,-10.16208 0,-5.23819 -3.1429,-8.53825 -9.27158,-9.11444 l -4.87152,-0.47144 c -2.09527,0 -3.24768,-0.89049 -3.24768,-2.72386 0,-1.83337 1.36193,-3.09053 4.40009,-3.09053 a 13.881194,13.881194 0 0 1 6.02391,1.57146 6.3382059,6.3382059 0 0 0 2.25243,0.68097 2.8286208,2.8286208 0 0 0 2.20003,-0.94289 3.6667306,3.6667306 0 0 0 1.04763,-2.40956 2.9333845,2.9333845 0 0 0 -0.8381,-2.20003 7.9620437,7.9620437 0 0 0 -2.46195,-1.51907 20.167019,20.167019 0 0 0 -8.32871,-1.46671 z m -17.96698,15.71457 a 16.133615,16.133615 0 0 0 -3.50959,-12.15259 13.095467,13.095467 0 0 0 -9.69064,-3.82388 12.990703,12.990703 0 0 0 -9.63827,3.82388 22.41944,22.41944 0 0 0 0,24.25281 12.781176,12.781176 0 0 0 9.63827,3.82386 12.938321,12.938321 0 0 0 9.69064,-3.82386 15.97647,15.97647 0 0 0 3.71911,-11.78592 z m -18.64795,0 a 10.476373,10.476373 0 0 1 1.83336,-7.54299 5.2381867,5.2381867 0 0 1 7.2287,0 10.476373,10.476373 0 0 1 1.83336,7.54299 10.476373,10.476373 0 0 1 -1.83336,7.54299 5.6572417,5.6572417 0 0 1 -7.2287,0 10.476373,10.476373 0 0 1 -1.62384,-7.22869 z m -33.15773,-12.67641 a 4.0334037,4.0334037 0 0 0 -1.1524,-2.25242 3.9810219,3.9810219 0 0 0 -5.81438,0.89049 5.919151,5.919151 0 0 0 -0.5762,3.50958 v 20.95275 a 7.0715521,7.0715521 0 0 0 0.47143,3.4572 3.6667306,3.6667306 0 0 0 3.40482,1.88575 3.5619669,3.5619669 0 0 0 3.35244,-1.88575 6.9144064,6.9144064 0 0 0 0.52382,-3.4572 v -13.77643 a 5.23819,5.23819 0 1 1 10.47638,0 v 13.77643 a 7.0715521,7.0715521 0 0 0 0.47143,3.4572 3.6667306,3.6667306 0 0 0 3.40482,1.88575 3.5619669,3.5619669 0 0 0 3.35244,-1.88575 6.9144064,6.9144064 0 0 0 0.52382,-3.4572 v -14.82407 a 11.576393,11.576393 0 0 0 -3.19529,-8.85253 10.1097,10.1097 0 0 0 -7.33346,-2.77624 10.476373,10.476373 0 0 0 -7.70014,3.66672 z m -29.33384,20.95274 a 3.92864,3.92864 0 0 0 -3.98102,-3.09052 3.4572032,3.4572032 0 0 0 -2.46195,0.94287 7.2810795,7.2810795 0 0 0 -1.57146,3.03814 l -2.61909,7.90967 a 6.9144064,6.9144064 0 0 0 -0.26191,3.87625 3.92864,3.92864 0 0 0 3.98102,3.09054 3.3524395,3.3524395 0 0 0 2.46195,-0.94288 6.2334422,6.2334422 0 0 0 1.57146,-3.03815 l 2.61909,-7.85727 a 6.6001153,6.6001153 0 0 0 0.47144,-3.50959 z m -24.77662,-4.29531 a 4.6619862,4.6619862 0 0 1 -1.20479,3.92865 5.9715328,5.9715328 0 0 1 -4.6096,1.51907 c -3.24768,0 -4.71437,-1.36193 -4.71437,-3.50959 0,-2.14765 1.46669,-3.61436 4.6096,-3.61436 h 5.91916 z m -5.23819,-13.46215 c 3.66673,0 5.23819,1.51909 5.23819,4.92391 v 1.51907 h -7.07156 c -7.33346,0 -10.47637,4.08579 -10.47637,9.06207 a 10.004937,10.004937 0 0 0 2.56671,6.96678 10.476373,10.476373 0 0 0 7.96204,2.82862 9.5334998,9.5334998 0 0 0 7.70014,-3.09053 4.2953131,4.2953131 0 0 0 1.1524,2.09528 3.6143489,3.6143489 0 0 0 2.46195,0.89049 3.7714944,3.7714944 0 0 0 3.35244,-1.83337 6.1810603,6.1810603 0 0 0 0.5762,-3.4572 v -15.45265 c 0,-7.33347 -4.45246,-11.05257 -13.14785,-11.05257 a 16.133615,16.133615 0 0 0 -7.85728,1.83337 4.5048405,4.5048405 0 0 0 -2.881,3.66672 3.2476758,3.2476758 0 0 0 0.83811,2.35718 2.8810027,2.8810027 0 0 0 2.25242,1.04765 5.2381867,5.2381867 0 0 0 2.56671,-0.78573 8.8001536,8.8001536 0 0 1 4.71437,-1.10003 z m -30.53863,16.02887 a 8.3287168,8.3287168 0 0 0 9.00968,8.9049 h 0.41906 a 6.9144064,6.9144064 0 0 0 3.19529,-0.52381 2.9333845,2.9333845 0 0 0 1.57146,-2.77623 2.8810027,2.8810027 0 0 0 -1.57146,-2.77624 4.8715136,4.8715136 0 0 0 -2.3048,-0.47144 2.4095659,2.4095659 0 0 1 -2.51433,-2.77624 v -14.50978 h 2.3048 a 5.2381867,5.2381867 0 0 0 2.61909,-0.41906 3.0381483,3.0381483 0 0 0 0,-5.23818 5.2381867,5.2381867 0 0 0 -2.61909,-0.41906 h -2.35718 v -4.13817 a 7.1763158,7.1763158 0 0 0 -0.52382,-3.50958 4.0334037,4.0334037 0 0 0 -6.75726,0 7.1763158,7.1763158 0 0 0 -0.52382,3.50958 v 4.13817 h -0.78573 a 5.2381867,5.2381867 0 0 0 -2.61909,0.41906 3.0905301,3.0905301 0 0 0 0,5.23818 5.2381867,5.2381867 0 0 0 2.61909,0.41906 h 0.78573 z m -17.96698,-22.26231 c -6.23344,0 -13.93358,3.30006 -13.93358,15.71457 0,12.4145 7.64776,15.71456 13.8812,15.71456 a 12.152593,12.152593 0 0 0 6.18106,-1.51907 c 1.78098,-0.94288 3.77149,-2.40957 3.77149,-4.40009 a 3.5095851,3.5095851 0 0 0 -1.10002,-2.51432 3.5619669,3.5619669 0 0 0 -2.40956,-1.10002 4.2429313,4.2429313 0 0 0 -2.67148,1.1524 5.7096235,5.7096235 0 0 1 -3.77149,1.30955 5.2381867,5.2381867 0 0 1 -4.40008,-2.04289 14.405014,14.405014 0 0 1 0,-13.67167 5.6048598,5.6048598 0 0 1 4.40008,-2.0429 6.0762966,6.0762966 0 0 1 3.77149,1.36193 4.2429313,4.2429313 0 0 0 2.67148,1.04763 3.5095851,3.5095851 0 0 0 2.40956,-0.99525 3.7191126,3.7191126 0 0 0 1.10002,-2.56671 c 0,-1.99051 -2.04289,-3.4572 -3.77149,-4.34769 a 11.471629,11.471629 0 0 0 -6.12868,-1.10003 z M 257.2199,621.6432 a 3.7714944,3.7714944 0 0 0 4.45245,-4.45245 13.252612,13.252612 0 0 0 -13.5669,-13.93359 c -8.06681,0 -13.51452,5.8144 -13.51452,15.71457 0,12.57164 7.01917,15.71456 14.40501,15.71456 a 15.190741,15.190741 0 0 0 8.48587,-2.14765 c 1.78098,-1.20479 3.03814,-2.56672 3.03814,-4.03341 a 3.3524395,3.3524395 0 0 0 -3.14291,-3.24768 4.8715136,4.8715136 0 0 0 -2.881,1.15241 8.9049175,8.9049175 0 0 1 -5.23819,1.67621 6.3905878,6.3905878 0 0 1 -6.86202,-6.91441 z m -3.1953,-5.23819 h -11.78592 a 7.2810795,7.2810795 0 0 1 0.68097,-3.35243 5.8667691,5.8667691 0 0 1 10.47637,0 8.0144257,8.0144257 0 0 1 0.62858,3.30005 z m -44.57697,-9.74302 a 4.0857857,4.0857857 0 0 0 -1.20478,-2.25242 3.3524395,3.3524395 0 0 0 -2.46195,-0.89049 3.7191126,3.7191126 0 0 0 -3.35244,1.78098 6.3905878,6.3905878 0 0 0 -0.5762,3.50958 v 20.95276 a 6.9144064,6.9144064 0 0 0 0.52382,3.4572 3.9810219,3.9810219 0 0 0 6.75726,0 6.9144064,6.9144064 0 0 0 0.52382,-3.4572 v -13.77644 a 5.23819,5.23819 0 1 1 10.47638,0 v 13.77644 a 6.9144064,6.9144064 0 0 0 0.52381,3.4572 3.9810219,3.9810219 0 0 0 6.75726,0 6.9144064,6.9144064 0 0 0 0.52382,-3.4572 v -14.82408 a 11.576393,11.576393 0 0 0 -3.19529,-8.85252 10.1097,10.1097 0 0 0 -7.33346,-2.77626 10.476373,10.476373 0 0 0 -7.96205,3.30006 z m -14.98121,12.67642 a 16.133615,16.133615 0 0 0 -3.56197,-12.1526 14.143104,14.143104 0 0 0 -19.32891,0 22.41944,22.41944 0 0 0 0,24.2528 14.143104,14.143104 0 0 0 19.32891,0 15.97647,15.97647 0 0 0 3.56197,-12.15258 z m -18.70033,0 a 10.476373,10.476373 0 0 1 1.83337,-7.54299 4.9238955,4.9238955 0 0 1 3.61435,-1.36193 4.8191318,4.8191318 0 0 1 3.61435,1.36193 10.476373,10.476373 0 0 1 1.83336,7.54299 10.476373,10.476373 0 0 1 -1.83336,7.54299 4.7667499,4.7667499 0 0 1 -3.61435,1.30953 4.8715136,4.8715136 0 0 1 -3.61435,-1.30953 10.476373,10.476373 0 0 1 -1.67622,-7.59537 z m -22.78611,-15.71457 c -6.28582,0 -13.98595,3.30006 -13.98595,15.71457 0,12.4145 7.70013,15.71455 13.93357,15.71455 a 11.943066,11.943066 0 0 0 6.12868,-1.51907 c 1.78098,-0.94287 3.77149,-2.40956 3.77149,-4.40008 a 3.3000576,3.3000576 0 0 0 -1.10002,-2.51433 3.4572032,3.4572032 0 0 0 -2.40956,-1.10001 4.347695,4.347695 0 0 0 -2.67148,1.15239 5.6048598,5.6048598 0 0 1 -3.71911,1.30955 5.2381867,5.2381867 0 0 1 -4.40007,-2.0429 14.405014,14.405014 0 0 1 0,-13.67167 5.500096,5.500096 0 0 1 4.40007,-2.04289 5.919151,5.919151 0 0 1 3.71911,1.36193 4.2429313,4.2429313 0 0 0 2.67148,1.04764 3.4048214,3.4048214 0 0 0 2.40956,-0.99525 3.5095851,3.5095851 0 0 0 1.10002,-2.56671 c 0,-1.99051 -1.99051,-3.45721 -3.77149,-4.34769 a 11.157338,11.157338 0 0 0 -6.0763,-1.46671 z m -37.87209,18.38603 a 4.4524587,4.4524587 0 0 0 3.4572,-0.99525 4.8715136,4.8715136 0 0 0 1.04764,-3.4572 13.304994,13.304994 0 0 0 -13.5669,-14.30026 c -8.066802,0 -13.566902,5.8144 -13.566902,15.71457 0,12.57164 7.01917,15.71456 14.405002,15.71456 a 15.71456,15.71456 0 0 0 8.53826,-2.14765 c 1.78097,-1.20479 3.03814,-2.56672 3.03814,-4.03341 a 3.4048214,3.4048214 0 0 0 -3.14291,-3.24768 4.7667499,4.7667499 0 0 0 -2.88101,1.15241 9.0096812,9.0096812 0 0 1 -5.23818,1.67621 6.3905878,6.3905878 0 0 1 -6.91441,-6.91441 z m -3.14291,-5.23818 h -11.8383 a 8.0144257,8.0144257 0 0 1 0.73335,-3.35244 5.2381867,5.2381867 0 0 1 5.23818,-3.1953 5.2381867,5.2381867 0 0 1 5.23819,3.1953 8.0144257,8.0144257 0 0 1 0.62858,2.93338 z m -38.395912,1.15241 a 6.6001153,6.6001153 0 0 1 3.82388,1.41431 4.9238955,4.9238955 0 0 1 1.25717,3.56196 c 0,3.40482 -2.6191,5.23818 -7.54299,5.23818 a 15.295505,15.295505 0 0 1 -8.06682,-2.25242 6.8096427,6.8096427 0 0 0 -3.35244,-1.10001 3.0905301,3.0905301 0 0 0 -2.35718,0.89049 4.0857857,4.0857857 0 0 0 -1.1524,2.72386 c 0,2.40956 1.57146,3.61434 4.29531,4.87151 a 21.476565,21.476565 0 0 0 10.47638,2.20004 c 8.9573,0 15.71455,-4.71437 15.71455,-12.93833 a 11.733538,11.733538 0 0 0 -3.30004,-9.00968 14.247868,14.247868 0 0 0 -8.1192,-3.30006 l -5.23819,-0.73335 a 6.5477333,6.5477333 0 0 1 -3.92863,-1.62383 4.1905494,4.1905494 0 0 1 -1.20479,-3.24768 c 0,-2.72386 2.14766,-5.23818 6.54773,-5.23818 a 13.304994,13.304994 0 0 1 6.70488,1.67622 7.8048982,7.8048982 0 0 0 3.09053,0.94288 3.3000576,3.3000576 0 0 0 2.51433,-1.15241 4.1905494,4.1905494 0 0 0 0.94287,-2.56671 4.9238955,4.9238955 0 0 0 -3.40482,-4.13817 20.952746,20.952746 0 0 0 -9.63825,-2.09527 c -9.16684,0 -14.82408,5.23819 -14.82408,12.93832 a 10.895428,10.895428 0 0 0 3.09054,8.32872 13.933576,13.933576 0 0 0 8.22395,3.56196 z"
     id="path20"
     inkscape:export-filename="/home/julio/Escritorio/app-radio/imagenes/logo_fm_unam.png"
     inkscape:export-xdpi="96"
     inkscape:export-ydpi="96"
     style="stroke-width:5.23819" />
  <path
     class="cls-1"
     d="m 681.14635,529.03206 c 0,13.14785 -1.83337,22.41945 -13.93358,22.41945 h -11.05258 v -42.95313 h 11.05258 c 12.10021,0 13.93358,7.38583 13.93358,20.53368 m -13.93358,31.01007 c 19.80035,0 23.9909,-11.99545 23.9909,-31.01007 0,-19.01461 -4.66199,-29.01956 -23.9909,-29.01956 h -15.71456 a 4.9238955,4.9238955 0 0 0 -4.92389,4.9239 v 50.18183 a 4.9238955,4.9238955 0 0 0 4.92389,4.9239 z"
     id="path22"
     inkscape:export-filename="/home/julio/Escritorio/app-radio/imagenes/logo_fm_unam.png"
     inkscape:export-xdpi="96"
     inkscape:export-ydpi="96"
     style="stroke-width:5.23819" />
  <path
     class="cls-1"
     d="m 532.38185,504.9364 a 4.871515,4.871515 0 0 0 -9.74303,0 v 50.23421 a 4.871515,4.871515 0 1 0 9.74303,0 z"
     id="path24"
     inkscape:export-filename="/home/julio/Escritorio/app-radio/imagenes/logo_fm_unam.png"
     inkscape:export-xdpi="96"
     inkscape:export-ydpi="96"
     style="stroke-width:5.23819" />
  <path
     class="cls-1"
     d="m 203.99992,540.87036 v -35.5149 a 5.2381867,5.2381867 0 0 0 -4.87151,-5.23818 4.9238955,4.9238955 0 0 0 -4.9239,4.92389 v 35.72443 c 0,14.4574 7.70014,20.32417 22.00038,20.32417 14.30025,0 22.15753,-5.86677 22.15753,-20.32417 v -35.8292 a 4.9238955,4.9238955 0 1 0 -9.79541,0 v 35.93396 c 0,8.01443 -4.29531,11.62878 -12.36212,11.62878 -8.0668,0 -12.20497,-3.50959 -12.20497,-11.62878"
     id="path26"
     inkscape:export-filename="/home/julio/Escritorio/app-radio/imagenes/logo_fm_unam.png"
     inkscape:export-xdpi="96"
     inkscape:export-ydpi="96"
     style="stroke-width:5.23819" />
  <path
     class="cls-1"
     d="m 457.05672,519.44618 c 0,6.23344 -2.82862,11.05257 -10.16209,11.05257 h -13.25261 v -22.05276 h 13.04309 a 9.428736,9.428736 0 0 1 10.47637,10.47638 m -9.32396,19.48605 7.43821,18.22888 a 4.9238955,4.9238955 0 0 0 9.48112,-1.78097 4.7143681,4.7143681 0 0 0 -0.47144,-2.09528 l -7.07155,-16.29076 a 17.495544,17.495544 0 0 0 9.79541,-17.3384 c 0,-13.30499 -7.07155,-19.11939 -20.32416,-19.11939 h -18.4908 a 4.2429313,4.2429313 0 0 0 -4.24293,4.24293 v 50.91518 a 4.8715136,4.8715136 0 1 0 9.69064,0 v -16.50029 z"
     id="path28"
     inkscape:export-filename="/home/julio/Escritorio/app-radio/imagenes/logo_fm_unam.png"
     inkscape:export-xdpi="96"
     inkscape:export-ydpi="96"
     style="stroke-width:5.23819" />
  <path
     class="cls-1"
     d="m 508.91477,500.43156 a 87.896773,87.896773 0 0 0 -15.19074,-1.46669 c -11.99545,0 -19.9575,5.23818 -19.9575,17.0765 0,10.47637 5.60486,14.405 18.59557,17.70506 9.16682,2.20004 11.89068,3.92864 11.89068,9.00968 0,6.3382 -3.40482,9.63827 -10.84305,9.63827 a 85.330062,85.330062 0 0 1 -13.93358,-1.04765 4.0388457,4.0388457 0 0 0 -1.36192,7.96205 71.082193,71.082193 0 0 0 15.71456,1.67622 c 11.8383,0 20.06226,-5.65724 20.06226,-18.80509 0,-10.47637 -4.55723,-13.61928 -17.12888,-17.07648 -10.47637,-2.82862 -13.40975,-4.13817 -13.40975,-9.74303 0,-5.60487 3.77149,-7.80491 11.10495,-7.80491 4.66199,0 9.42874,0.99527 13.72405,0.99527 a 4.0857857,4.0857857 0 0 0 0.57621,-8.1192"
     id="path30"
     inkscape:export-filename="/home/julio/Escritorio/app-radio/imagenes/logo_fm_unam.png"
     inkscape:export-xdpi="96"
     inkscape:export-ydpi="96"
     style="stroke-width:5.23819" />
  <path
     class="cls-1"
     d="m 577.63978,529.03206 c 0,13.14785 -1.83337,22.41945 -13.93358,22.41945 h -11.05257 v -42.95313 h 10.89543 c 12.1002,0 13.93357,7.38583 13.93357,20.53368 m -13.93357,31.01007 c 19.80034,0 23.99089,-11.99545 23.99089,-31.01007 0,-19.01461 -4.66198,-29.01956 -23.99089,-29.01956 h -15.71457 a 4.9238955,4.9238955 0 0 0 -4.92389,4.9239 v 50.18183 a 4.9238955,4.9238955 0 0 0 4.92389,4.9239 z"
     id="path32"
     inkscape:export-filename="/home/julio/Escritorio/app-radio/imagenes/logo_fm_unam.png"
     inkscape:export-xdpi="96"
     inkscape:export-ydpi="96"
     style="stroke-width:5.23819" />
  <path
     class="cls-1"
     d="m 612.89277,508.18408 h 4.3477 l 7.38584,30.38148 h -19.17176 z m -11.73353,48.29608 2.35717,-9.32398 h 22.89088 l 2.30481,9.16684 a 4.7143681,4.7143681 0 0 0 4.6096,3.71911 4.7667499,4.7667499 0 0 0 4.66199,-5.81438 l -12.67641,-51.12471 a 4.0857857,4.0857857 0 0 0 -3.92865,-3.09054 h -12.9907 a 4.0857857,4.0857857 0 0 0 -3.98101,3.1953 l -12.51927,50.81041 a 4.7205479,4.7205479 0 1 0 9.11444,2.46195 z"
     id="path34"
     inkscape:export-filename="/home/julio/Escritorio/app-radio/imagenes/logo_fm_unam.png"
     inkscape:export-xdpi="96"
     inkscape:export-ydpi="96"
     style="stroke-width:5.23819" />
  <path
     class="cls-1"
     d="m 314.1066,504.9364 a 4.8715136,4.8715136 0 1 0 -9.74302,0 v 50.23421 a 4.8715136,4.8715136 0 0 0 9.74302,0 z"
     id="path36"
     inkscape:export-filename="/home/julio/Escritorio/app-radio/imagenes/logo_fm_unam.png"
     inkscape:export-xdpi="96"
     inkscape:export-ydpi="96"
     style="stroke-width:5.23819" />
  <path
     class="cls-1"
     d="m 381.4173,560.04213 h 29.28147 a 4.2953131,4.2953131 0 0 0 0,-8.59062 h -23.83375 v -17.54794 h 18.64794 a 4.19055,4.19055 0 0 0 0,-8.3811 h -18.64794 v -17.02409 h 23.88613 a 4.24294,4.24294 0 0 0 0,-8.48588 h -29.38623 a 4.2429313,4.2429313 0 0 0 -4.24293,4.24293 v 51.49139 a 4.2953131,4.2953131 0 0 0 4.29531,4.29531"
     id="path38"
     inkscape:export-filename="/home/julio/Escritorio/app-radio/imagenes/logo_fm_unam.png"
     inkscape:export-xdpi="96"
     inkscape:export-ydpi="96"
     style="stroke-width:5.23819" />
  <path
     class="cls-1"
     d="m 69.326138,534.53216 h 18.64794 a 4.19055,4.19055 0 1 0 0,-8.3811 h -18.64794 v -17.65268 h 23.83375 a 4.24294,4.24294 0 1 0 0,-8.48588 h -29.33385 a 4.2429313,4.2429313 0 0 0 -4.24293,4.24293 v 51.01995 a 4.871515,4.871515 0 0 0 9.74303,0 z"
     id="path40"
     inkscape:export-filename="/home/julio/Escritorio/app-radio/imagenes/logo_fm_unam.png"
     inkscape:export-xdpi="96"
     inkscape:export-ydpi="96"
     style="stroke-width:5.23819" />
  <path
     class="cls-1"
     d="m 257.74372,555.06585 a 4.9762773,4.9762773 0 1 1 -9.90018,0 V 504.9364 a 4.9238955,4.9238955 0 0 1 5.23819,-5.23818 5.2381867,5.2381867 0 0 1 4.19055,2.3048 l 25.66711,37.03398 v -33.99583 a 4.97628,4.97628 0 0 1 9.95256,0 v 50.07706 0 a 4.8715136,4.8715136 0 0 1 -2.14766,4.08579 5.2381867,5.2381867 0 0 1 -6.9144,-1.25717 l -25.82427,-37.19113 z"
     id="path42"
     inkscape:export-filename="/home/julio/Escritorio/app-radio/imagenes/logo_fm_unam.png"
     inkscape:export-xdpi="96"
     inkscape:export-ydpi="96"
     style="stroke-width:5.23819" />
  <path
     class="cls-1"
     d="m 323.37819,506.71739 a 4.9762773,4.9762773 0 1 1 9.37636,-3.30006 l 13.09547,36.6673 12.67641,-36.6673 a 5.2381867,5.2381867 0 0 1 6.28582,-3.09053 4.9238955,4.9238955 0 0 1 3.09053,6.28582 l -17.23363,49.81516 a 4.8191318,4.8191318 0 0 1 -3.14291,3.35244 4.8715136,4.8715136 0 0 1 -6.28583,-3.03815 z"
     id="path44"
     inkscape:export-filename="/home/julio/Escritorio/app-radio/imagenes/logo_fm_unam.png"
     inkscape:export-xdpi="96"
     inkscape:export-ydpi="96"
     style="stroke-width:5.23819" />
  <path
     class="cls-1"
     d="m 112.59357,555.38014 a 4.7143681,4.7143681 0 0 1 -9.37636,0 v -50.39135 a 4.7143681,4.7143681 0 0 1 4.71437,-4.71437 4.7667499,4.7667499 0 0 1 4.19054,2.6191 l 18.59557,35.56728 19.01461,-35.72444 a 4.7143681,4.7143681 0 0 1 8.80016,2.56672 v 50.07706 a 4.7143681,4.7143681 0 0 1 -9.37635,0 v -31.7958 L 134.7511,550.8753 v 0 a 4.6096042,4.6096042 0 0 1 -1.93814,1.93814 4.7143681,4.7143681 0 0 1 -6.3382,-1.99052 l -13.93358,-26.66237 z"
     id="path46"
     inkscape:export-filename="/home/julio/Escritorio/app-radio/imagenes/logo_fm_unam.png"
     inkscape:export-xdpi="96"
     inkscape:export-ydpi="96"
     style="stroke-width:5.23819" />
</svg>
